<?xml version="1.0" encoding="UTF-8"?>
<svg id="Layer_1" xmlns="http://www.w3.org/2000/svg" version="1.1" viewBox="0 0 332.93 67">
  <!-- Generator: Adobe Illustrator 30.0.0, SVG Export Plug-In . SVG Version: 2.1.1 Build 123)  -->
  <defs>
    <style>
      .st0 {
        fill: #ffce00;
      }

      .st0, .st1, .st2 {
        stroke: #000;
        stroke-miterlimit: 10;
        stroke-width: .5px;
      }

      .st3 {
        font-size: 62.4px;
        letter-spacing: .03em;
      }

      .st3, .st4 {
        font-family: Roca-BoldItalic, Roca;
        font-style: italic;
        font-weight: 700;
      }

      .st3, .st2 {
        fill: #fff;
      }

      .st4 {
        fill: #d825a1;
        font-size: 18px;
      }
    </style>
  </defs>
  <g>
    <g>
      <g>
        <path class="st2" d="M25.02,3.8s.09,4.27-1.24,4.73-5.05,2.31-4.19,5.97,10.42,17.28,12.69,17.87,5.23-1.46,5.23-1.46c0,0,3.42-21.53,1.12-23.55-2.3-2.02-5.29-1.39-5.29-1.39,0,0-1.78-1.68-3.31-.46,0,0-2.3-2.02-2.65-.69,0,0-.03-1.42-2.36-1.02Z"/>
        <path class="st1" d="M33.18,32.59c-.31,0-.62-.03-.92-.11-1.27-.33-4.53-4.43-6.94-7.83-2.58-3.65-5.38-8.19-5.83-10.12-.79-3.38,2.31-5.43,4.26-6.1,1.03-.35,1.19-3.45,1.16-4.62v-.1s.09-.02.09-.02c.93-.16,1.62-.06,2.05.3.19.16.3.34.36.5.08-.1.17-.16.29-.2.71-.22,2.01.81,2.32,1.08,1.44-1.05,3.06.24,3.34.49.43-.07,3.19-.45,5.33,1.42,2.32,2.03-.94,22.77-1.08,23.65v.05s-.05.03-.05.03c-.11.07-2.32,1.59-4.4,1.59ZM25.14,3.89c0,.66-.02,4.29-1.32,4.74-.81.28-2,.89-2.88,1.76-1.19,1.17-1.6,2.55-1.24,4.08.88,3.75,10.43,17.22,12.61,17.79,2.05.54,4.74-1.18,5.1-1.42.18-1.14,3.33-21.49,1.15-23.4-2.23-1.96-5.17-1.37-5.2-1.36h-.06s-.04-.03-.04-.03c-.07-.07-1.73-1.6-3.17-.46l-.07.06-.07-.06c-.41-.36-1.61-1.27-2.18-1.09-.14.04-.24.16-.28.35l-.2.77-.02-.8s-.02-.38-.36-.66c-.37-.3-.97-.39-1.77-.27Z"/>
      </g>
      <g>
        <path class="st2" d="M2.15,33.22s4.01,1.45,3.96,2.86.34,5.54,4.06,6.06,19.87-3.5,21.24-5.41.52-5.4.52-5.4c0,0-18.85-10.94-21.56-9.52s-3.2,4.44-3.2,4.44c0,0-2.21,1.06-1.63,2.92,0,0-2.71,1.42-1.6,2.22,0,0-1.34-.48-1.8,1.83Z"/>
        <path class="st1" d="M10.96,42.3c-.31,0-.58-.01-.8-.05-3.44-.48-4.23-4.11-4.16-6.18.04-1.09-2.79-2.35-3.89-2.75l-.09-.03.02-.09c.18-.92.53-1.53,1.02-1.8.22-.12.43-.16.6-.16-.06-.1-.09-.22-.08-.34.05-.75,1.48-1.58,1.84-1.78-.47-1.72,1.33-2.77,1.66-2.94.09-.42.72-3.14,3.25-4.46,2.73-1.43,20.9,9.08,21.67,9.52l.04.02v.05c.05.15.86,3.57-.53,5.5-.77,1.07-5.76,2.63-9.8,3.65-3.83.97-8.39,1.84-10.74,1.84ZM2.27,33.15c.62.23,4,1.57,3.95,2.93-.03.86.11,2.18.61,3.32.67,1.53,1.8,2.41,3.36,2.63,3.82.53,19.82-3.53,21.14-5.36,1.24-1.72.61-4.85.52-5.27-1-.57-18.85-10.84-21.41-9.5-2.63,1.38-3.14,4.33-3.14,4.36v.06s-.06.03-.06.03c-.09.04-2.11,1.04-1.57,2.79l.03.09-.08.04c-.49.26-1.76,1.05-1.81,1.64-.01.15.06.28.22.39l.65.47-.75-.27s-.36-.12-.75.1c-.41.24-.71.76-.89,1.56Z"/>
      </g>
      <g>
        <path class="st2" d="M14.71,61.09s3.66-2.19,4.72-1.26,4.51,3.25,7.26.69,9.87-17.6,9.26-19.87-3.85-3.83-3.85-3.83c0,0-20.41,7.67-21.02,10.67s1.41,5.29,1.41,5.29c0,0-.58,2.38,1.23,3.11,0,0-.62,3,.71,2.64,0,0-1.22.73.28,2.56Z"/>
        <path class="st1" d="M23.81,61.79c-1.76,0-3.47-1-4.46-1.87-.82-.72-3.59.67-4.59,1.27l-.08.05-.06-.07c-.6-.73-.85-1.38-.75-1.93.04-.25.15-.43.25-.56-.12-.02-.23-.07-.32-.16-.54-.51-.28-2.15-.21-2.55-1.63-.73-1.3-2.78-1.23-3.15-.27-.34-1.97-2.55-1.4-5.34.62-3.02,20.26-10.44,21.09-10.75l.04-.02.04.02c.13.06,3.3,1.61,3.91,3.9.34,1.27-1.61,6.13-3.38,9.9-1.9,4.04-4.46,8.73-5.92,10.08-.93.86-1.95,1.18-2.96,1.18ZM18.67,59.5c.34,0,.63.07.83.25.65.57,1.76,1.3,2.95,1.63,1.61.45,3.01.14,4.16-.94,2.82-2.62,9.81-17.58,9.23-19.76-.55-2.05-3.37-3.54-3.75-3.73-1.08.41-20.32,7.73-20.91,10.57-.6,2.9,1.37,5.17,1.39,5.19l.04.04v.06c-.04.09-.55,2.29,1.15,2.98l.09.03-.02.09c-.11.54-.3,2.03.13,2.44.11.1.25.13.44.08l.77-.2-.68.41s-.32.2-.4.64c-.08.47.14,1.03.65,1.67.46-.27,2.58-1.45,3.93-1.45Z"/>
      </g>
      <g>
        <path class="st2" d="M56.36,59.99s-1.59-3.96-.5-4.86,3.92-3.94,1.83-7.06-15.82-12.52-18.16-12.28-4.39,3.2-4.39,3.2c0,0,4.35,21.36,7.21,22.44s5.44-.56,5.44-.56c0,0,2.26.95,3.27-.73,0,0,2.86,1.08,2.72-.28,0,0,.53,1.32,2.57.13Z"/>
        <path class="st1" d="M44.39,61.9c-.65,0-1.35-.1-2.07-.37-2.89-1.09-7.11-21.65-7.28-22.52v-.05s.02-.04.02-.04c.08-.12,2.11-3.01,4.47-3.25,1.31-.13,5.8,2.55,9.24,4.9,3.69,2.51,7.91,5.78,9.02,7.43,1.93,2.89-.25,5.89-1.85,7.21-.84.69.1,3.65.53,4.73l.04.09-.08.05c-.81.47-1.49.62-2.03.44-.24-.08-.4-.22-.51-.34-.04.12-.11.21-.2.29-.59.46-2.16-.06-2.55-.2-.97,1.49-2.95.85-3.3.72-.27.16-1.66.91-3.43.91ZM35.26,39.01c.23,1.13,4.43,21.29,7.14,22.31,2.77,1.05,5.32-.53,5.34-.55l.05-.03.05.02c.09.04,2.18.89,3.13-.68l.05-.08.09.03c.52.19,1.96.62,2.43.26.12-.09.17-.23.15-.42l-.08-.79.3.74s.15.35.57.5c.45.15,1.04.03,1.75-.37-.24-.62-1.49-4.03-.43-4.9.66-.55,1.56-1.53,2.08-2.66.7-1.51.61-2.95-.27-4.26-2.14-3.2-15.81-12.47-18.05-12.23-2.11.22-4.03,2.77-4.28,3.12Z"/>
      </g>
      <g>
        <path class="st2" d="M63.06,20.58s-4.24.49-4.82-.79-2.78-4.81-6.34-3.61-16.23,11.99-16.61,14.31,1.94,5.07,1.94,5.07c0,0,21.76,1.39,23.55-1.09,1.79-2.48.89-5.4.89-5.4,0,0,1.51-1.93.15-3.34,0,0,1.79-2.48.44-2.7,0,0,1.41-.16.8-2.44Z"/>
        <path class="st1" d="M49.25,36.06c-5.76,0-11.56-.36-12.02-.39h-.05s-.03-.04-.03-.04c-.1-.11-2.35-2.82-1.97-5.16.21-1.3,3.98-4.93,7.15-7.64,3.39-2.91,7.65-6.12,9.53-6.76,3.3-1.11,5.62,1.79,6.48,3.67.45.99,3.55.86,4.71.73h.1s.03.08.03.08c.24.91.21,1.6-.11,2.07-.14.21-.31.33-.46.41.1.07.18.16.22.27.28.69-.62,2.07-.86,2.41,1.18,1.33.04,3.07-.17,3.37.11.42.75,3.14-.92,5.44-.87,1.21-6.23,1.53-11.62,1.53ZM37.29,35.44c1.15.07,21.71,1.3,23.4-1.05,1.74-2.4.88-5.27.87-5.3l-.02-.06.04-.05c.06-.08,1.43-1.87.16-3.2l-.06-.07.05-.08c.32-.45,1.11-1.73.89-2.27-.06-.14-.18-.22-.37-.25l-.78-.13.79-.09s.38-.05.63-.42c.27-.4.3-1,.1-1.79-.66.07-4.27.38-4.84-.87-.36-.78-1.07-1.9-2.02-2.7-1.28-1.07-2.69-1.36-4.18-.86-3.65,1.23-16.17,11.99-16.53,14.22-.34,2.1,1.62,4.61,1.89,4.95Z"/>
      </g>
      <path class="st0" d="M39.29,35.08c0,2.57-2.09,4.66-4.66,4.66s-4.66-2.09-4.66-4.66,2.09-4.66,4.66-4.66c1.29,0,2.45.52,3.29,1.36.63.63,1.08,1.45,1.27,2.35.06.3.09.62.09.94Z"/>
      <text class="st3" transform="translate(72.57 53.9) scale(.45 .72)"><tspan x="0" y="0">Wild Petal Studio.</tspan></text>
      <path class="st1" d="M34.63,39.85c-2.63,0-4.77-2.14-4.77-4.77s2.14-4.77,4.77-4.77c1.27,0,2.47.5,3.37,1.4.66.66,1.11,1.5,1.3,2.41.06.31.1.64.1.96,0,2.63-2.14,4.77-4.77,4.77ZM34.63,30.54c-2.51,0-4.55,2.04-4.55,4.55s2.04,4.55,4.55,4.55,4.55-2.04,4.55-4.55c0-.31-.03-.62-.09-.92-.18-.87-.61-1.67-1.24-2.3-.86-.86-2-1.33-3.21-1.33Z"/>
    </g>
    <polygon class="st1" points="31.71 31.17 13.53 27.45 13.58 27.24 31.25 30.85 24.89 20.77 25.08 20.65 31.71 31.17"/>
    <g>
      <line class="st2" x1="29.98" y1="33.02" x2="22.75" y2="31.93"/>
      <rect class="st1" x="26.25" y="28.82" width=".22" height="7.31" transform="translate(-9.69 53.7) rotate(-81.42)"/>
    </g>
    <g>
      <line class="st2" x1="29.98" y1="35.08" x2="18.05" y2="35.08"/>
      <rect class="st1" x="18.05" y="34.97" width="11.93" height=".22"/>
    </g>
    <rect class="st1" x="32.49" y="27.31" width=".22" height="3.46" transform="translate(-5.87 8.4) rotate(-13.49)"/>
    <rect class="st1" x="31.64" y="24.44" width=".22" height="1.97" transform="translate(-4.16 6.33) rotate(-10.68)"/>
    <rect class="st1" x="33.96" y="20.28" width=".22" height="10.17" transform="translate(-2.59 3.91) rotate(-6.32)"/>
    <rect class="st1" x="18" y="42.49" width="14.64" height=".22" transform="translate(-20.48 23.68) rotate(-36.83)"/>
    <polygon class="st1" points="27.98 44.14 27.81 44 29.89 41.54 32.11 38.98 32.28 39.13 30.06 41.68 27.98 44.14"/>
    <polygon class="st1" points="26.45 49.32 26.27 49.19 29.19 45.19 33.43 39.67 33.6 39.81 29.37 45.32 26.45 49.32"/>
    <rect class="st1" x="25.11" y="49.99" width=".97" height=".22" transform="translate(-30.32 43.88) rotate(-56.59)"/>
    <g>
      <line class="st2" x1="37.07" y1="39.05" x2="38.86" y2="45.99"/>
      <rect class="st1" x="37.85" y="38.94" width=".22" height="7.17" transform="translate(-9.43 10.85) rotate(-14.49)"/>
    </g>
    <g>
      <line class="st2" x1="37.97" y1="38.34" x2="39.82" y2="41.19"/>
      <rect class="st1" x="38.78" y="38.06" width=".22" height="3.4" transform="translate(-15.39 27.65) rotate(-33.06)"/>
    </g>
    <g>
      <line class="st2" x1="40.52" y1="42.18" x2="41.83" y2="44.07"/>
      <rect class="st1" x="41.06" y="41.98" width=".22" height="2.29" transform="translate(-17.25 31.2) rotate(-34.79)"/>
    </g>
    <g>
      <line class="st2" x1="38.89" y1="36.83" x2="45.58" y2="43.63"/>
      <rect class="st1" x="42.13" y="35.46" width=".22" height="9.54" transform="translate(-16.09 41.16) rotate(-44.52)"/>
    </g>
    <g>
      <line class="st2" x1="12.47" y1="27.17" x2="13.18" y2="27.35"/>
      <rect class="st1" x="12.72" y="26.9" width=".22" height=".73" transform="translate(-16.76 32.97) rotate(-75.71)"/>
    </g>
    <g>
      <line class="st0" x1="37.62" y1="31.51" x2="46.29" y2="26.02"/>
      <rect class="st1" x="36.83" y="28.65" width="10.26" height=".22" transform="translate(-8.88 26.92) rotate(-32.36)"/>
    </g>
    <g>
      <line class="st0" x1="38.49" y1="32.48" x2="42.24" y2="31.33"/>
      <rect class="st1" x="38.41" y="31.79" width="3.92" height=".22" transform="translate(-7.58 13.23) rotate(-17.04)"/>
    </g>
    <g>
      <line class="st0" x1="43.08" y1="30.91" x2="44.51" y2="30.43"/>
      <rect class="st1" x="43.04" y="30.56" width="1.52" height=".22" transform="translate(-7.52 15.64) rotate(-18.68)"/>
    </g>
    <g>
      <line class="st0" x1="45.58" y1="29.92" x2="45.3" y2="30.04"/>
      <rect class="st1" x="45.29" y="29.87" width=".31" height=".22" transform="translate(-8.15 20.43) rotate(-23.31)"/>
    </g>
    <g>
      <line class="st0" x1="39.2" y1="34.14" x2="50.95" y2="30.43"/>
      <rect class="st1" x="38.91" y="32.17" width="12.32" height=".22" transform="translate(-7.64 15.11) rotate(-17.57)"/>
    </g>
  </g>
  <text class="st4" transform="translate(27.61 -85.43)"><tspan x="0" y="0">Wild Petal Studio</tspan></text>
  <text/>
</svg>