<?xml version="1.0" encoding="UTF-8"?>
<svg id="Layer_1" data-name="Layer 1" xmlns="http://www.w3.org/2000/svg" viewBox="0 0 463.03 242.03">
  <g>
    <path d="M0,230.96c0-1.72.36-3.14,1.09-4.25.73-1.11,2.01-2.3,3.85-3.57,1.84-1.27,3.4-3.3,4.67-6.1,1.27-2.79,2.94-8.04,5.02-15.76l32.53-120.56c1.35-4.84,2.84-8.39,4.47-10.65,1.63-2.26,3.67-3.39,6.11-3.39,4.62,0,8.25,4.68,10.9,14.04l32.45,120.56c2.13,7.72,3.83,12.97,5.1,15.76,1.27,2.79,2.81,4.82,4.63,6.1,1.82,1.27,3.09,2.46,3.81,3.57.73,1.11,1.09,2.52,1.09,4.25,0,3.2-1.18,5.48-3.54,6.83-2.36,1.35-6.63,2.03-12.8,2.03h-4.59c-8.56,0-14.29-.64-17.2-1.91-2.91-1.27-4.36-3.55-4.36-6.83,0-1.8.41-3.28,1.25-4.43.83-1.15,2.33-2.3,4.51-3.45,3.32-1.8,4.98-4.39,4.98-7.76,0-.9-.13-2.17-.39-3.82-.26-1.64-.83-4.1-1.71-7.39l-4.28-15.76c-.67-2.79-2.08-4.19-4.2-4.19h-37.74c-2.08,0-3.45,1.4-4.12,4.19l-3.81,14.53c-1.45,5.58-2.18,9.65-2.18,12.19,0,3.69,1.66,6.36,4.98,8,2.28,1.15,3.88,2.28,4.79,3.39.91,1.11,1.36,2.61,1.36,4.5,0,3.28-1.25,5.56-3.74,6.83s-6.93,1.91-13.31,1.91h-4.12c-5.81,0-9.84-.68-12.1-2.03-2.26-1.36-3.39-3.63-3.39-6.83ZM21.71,216.68c0-3.37.67-7.43,2.02-12.19.42-1.56.28-2.59-.39-3.08-.62-.25-1.25.25-1.87,1.48-.67,1.64-1.31,3.86-1.91,6.65-.6,2.79-.9,5.17-.9,7.14,0,3.37.7,5.95,2.1,7.76.73,1.07,1.37,1.35,1.95.86.47-.49.47-1.56,0-3.2-.67-1.8-1.01-3.61-1.01-5.42ZM37.67,164.59c0,1.89.88,2.83,2.65,2.83h28.56c1.76,0,2.65-.94,2.65-2.83,0-.9-.29-2.46-.86-4.68l-13.62-52.95c-.83-2.96-1.66-4.43-2.49-4.43-.73,0-1.51,1.48-2.33,4.43l-13.7,52.95c-.36,1.23-.6,2.2-.7,2.89-.1.7-.16,1.29-.16,1.79ZM60.39,80.49c.57,1.81,1.28,4.23,2.14,7.27.86,3.04,2.04,7.31,3.54,12.81l30.12,111.81c1.92,6.81,3.89,10.96,5.91,12.44,1.04.74,1.72.7,2.06-.12.34-.82.14-1.8-.58-2.96-1.4-1.89-2.88-5.66-4.44-11.33l-30.19-111.81c-1.61-6.16-2.92-10.79-3.93-13.92-1.01-3.12-1.88-5.21-2.61-6.28-.78-1.23-1.43-1.56-1.95-.98-.52.57-.54,1.6-.08,3.08Z"/>
    <path d="M126.69,199.93v-58c0-2.63-.29-4.45-.86-5.48-.57-1.03-1.76-1.74-3.58-2.15-2.85-.49-4.9-1.29-6.15-2.4-1.25-1.11-1.87-2.97-1.87-5.6,0-4.1,1.95-6.85,5.84-8.25,2.54-.82,4.53-1.91,5.95-3.26,1.43-1.35,2.58-3.61,3.46-6.77.88-3.16,1.71-7.78,2.49-13.85.62-4.1,1.45-6.92,2.49-8.43,1.04-1.52,2.44-2.28,4.2-2.28,3.53,0,5.29,3.41,5.29,10.22v18.72c0,3.45,1.06,5.17,3.19,5.17h17.74c4.36,0,6.54,2.79,6.54,8.37s-2.18,8.62-6.54,8.62h-17.74c-2.13,0-3.19,1.68-3.19,5.05v57.26c0,16.99,3.37,25.49,10.12,25.49,2.33,0,4.33-.51,5.99-1.54,1.66-1.03,3.24-2.44,4.75-4.25.83-.98,1.63-1.8,2.41-2.46.78-.66,1.56-.99,2.33-.99.98,0,1.79.55,2.41,1.66s.93,2.48.93,4.13c0,3.78-.96,7.43-2.88,10.96-1.82,3.53-4.42,6.38-7.82,8.56-3.4,2.17-7.35,3.26-11.87,3.26-15.77,0-23.66-13.92-23.66-41.74ZM137.39,118.11c.28,1.11.61,2.03.97,2.77.62,1.31,1.22,1.77,1.79,1.35.57-.41.65-1.44.23-3.08-.1-.66-.19-1.42-.27-2.28-.08-.86-.12-2.11-.12-3.76v-9.48c0-1.97-.34-2.95-1.01-2.95s-1.14.78-1.4,2.34c-.21.98-.36,2.44-.47,4.37-.1,1.93-.16,3.84-.16,5.73,0,2.22.14,3.88.43,4.99ZM137.01,143.23c-.03,2.59-.04,5.32-.04,8.19v48.27c0,6.65.44,11.88,1.32,15.7.88,3.82,1.91,6.61,3.07,8.37,1.17,1.77,2.19,2.89,3.07,3.39.88.66,1.52.51,1.91-.43.39-.94.14-1.87-.74-2.77-.62-.82-1.38-2.03-2.26-3.63-.88-1.6-1.66-4-2.33-7.2-.67-3.2-1.01-7.68-1.01-13.42v-48.27c0-2.87-.01-5.6-.04-8.19-.03-2.59-.12-4.54-.27-5.85-.21-1.72-.64-2.59-1.28-2.59s-1.02.86-1.13,2.59c-.16,1.31-.25,3.26-.27,5.85ZM164.83,228.38c.88-.25,1.67-.88,2.37-1.91.7-1.02,1.23-2.07,1.6-3.14.62-1.72.65-2.91.08-3.57-.47-.66-1.04-.45-1.71.62-.99,1.64-2.15,3.16-3.5,4.56-.78.82-1.06,1.6-.86,2.34.21.91.88,1.27,2.02,1.11ZM164.36,127.9c0,1.07.44,1.6,1.32,1.6,1.25,0,1.87-1.27,1.87-3.82,0-1.89-.38-2.83-1.13-2.83s-1.28.78-1.6,2.34c-.31,1.15-.47,2.05-.47,2.71Z"/>
    <path d="M181.24,208.18c0-8.78,1.62-15.93,4.86-21.43,3.24-5.5,8.44-9.83,15.6-12.99,7.16-3.16,16.65-5.52,28.48-7.08,2.44-.33,3.66-2.13,3.66-5.42v-3.94c0-9.27-1.18-16.07-3.54-20.38-2.36-4.31-5.93-6.47-10.7-6.47-2.96,0-6.02,1.38-9.18,4.13-3.17,2.75-5.94,6.18-8.33,10.28-2.91,4.84-5.45,7.26-7.63,7.26-2.49,0-3.74-2.46-3.74-7.39,0-1.07.09-2.54.27-4.43.18-1.89.53-4.43,1.05-7.63.83-4.84,1.8-8.7,2.92-11.58,1.12-2.87,2.45-4.31,4.01-4.31,1.25,0,2.41,1.07,3.5,3.2.98,1.89,2,2.83,3.04,2.83.93,0,2.19-.72,3.77-2.16,1.58-1.44,3.6-2.85,6.07-4.25,2.46-1.4,5.46-2.09,8.99-2.09,8.51,0,15.06,3.51,19.65,10.53,4.59,7.02,6.89,17.18,6.89,30.48v54.55c0,4.93.43,8.42,1.28,10.47.86,2.05,2.04,3.08,3.54,3.08.83,0,1.67-.14,2.53-.43.86-.29,1.54-.43,2.06-.43,1.76,0,2.65,1.64,2.65,4.93,0,2.22-.54,4.39-1.63,6.53-2.39,4.68-6.3,7.02-11.75,7.02-6.28,0-10.53-3.77-12.76-11.33-.67-2.3-1.38-3.45-2.1-3.45-.47,0-1.3.66-2.49,1.97-3.94,4.68-7.86,8.09-11.75,10.22s-8.3,3.2-13.23,3.2c-8.25,0-14.64-2.98-19.18-8.93-4.54-5.95-6.81-14.14-6.81-24.57ZM195.41,221.18c1.61,3.74,3.53,6.18,5.76,7.33,1.25.49,2,.29,2.26-.62.21-1.07-.26-2.05-1.4-2.96-1.66-1.48-3.09-3.71-4.28-6.71-1.19-2.99-1.84-6.63-1.95-10.9-.1-2.96.08-5.68.54-8.19.47-2.5,1.12-4.66,1.95-6.47.57-1.48.61-2.48.12-3.02-.49-.53-1.21-.27-2.14.8-.83,1.15-1.66,3.16-2.49,6.03-.83,2.87-1.17,6.61-1.01,11.21.16,5.25,1.04,9.75,2.65,13.48ZM204.59,132.08c-.26-.9-.96-1.15-2.1-.74-1.87.66-3.14,2.34-3.81,5.05-.57,1.81-.57,3,0,3.57.36.58.91.33,1.63-.74.57-.9,1.14-1.74,1.71-2.52.57-.78,1.14-1.5,1.71-2.16.73-.74,1.01-1.56.86-2.46ZM199.38,205.72c0,5.5,1.14,9.87,3.42,13.11,2.28,3.24,5.55,4.86,9.81,4.86,3.89,0,7.59-.92,11.09-2.77,3.5-1.85,6.34-4.41,8.52-7.7.73-.99,1.18-1.91,1.36-2.77.18-.86.27-2.16.27-3.88v-19.95c0-3.86-1.22-5.66-3.66-5.42-11.36,1.48-19.34,3.94-23.93,7.39s-6.89,9.16-6.89,17.12ZM243.03,133.93c-.57-1.4-1.14-1.85-1.71-1.36-.78.33-.93,1.31-.47,2.95.98,3.53,1.7,7.27,2.14,11.21.44,3.94.66,8.91.66,14.9v49.63c0,8.46,1.3,13.79,3.89,16.01.88.91,1.55.99,2.02.25.36-.82.21-1.85-.47-3.08-1.55-3.2-2.33-7.59-2.33-13.18v-49.63c0-12.97-1.24-22.21-3.73-27.71Z"/>
    <path d="M269.96,208.18c0-8.78,1.62-15.93,4.86-21.43,3.24-5.5,8.44-9.83,15.6-12.99,7.16-3.16,16.65-5.52,28.48-7.08,2.44-.33,3.66-2.13,3.66-5.42v-3.94c0-9.27-1.18-16.07-3.54-20.38-2.36-4.31-5.93-6.47-10.7-6.47-2.96,0-6.02,1.38-9.18,4.13-3.17,2.75-5.94,6.18-8.33,10.28-2.91,4.84-5.45,7.26-7.63,7.26-2.49,0-3.74-2.46-3.74-7.39,0-1.07.09-2.54.27-4.43.18-1.89.53-4.43,1.05-7.63.83-4.84,1.8-8.7,2.92-11.58,1.12-2.87,2.45-4.31,4.01-4.31,1.25,0,2.41,1.07,3.5,3.2.99,1.89,2,2.83,3.04,2.83.93,0,2.19-.72,3.77-2.16,1.58-1.44,3.61-2.85,6.07-4.25,2.46-1.4,5.46-2.09,8.99-2.09,8.51,0,15.06,3.51,19.65,10.53,4.59,7.02,6.89,17.18,6.89,30.48v54.55c0,4.93.43,8.42,1.28,10.47.86,2.05,2.04,3.08,3.54,3.08.83,0,1.67-.14,2.53-.43.86-.29,1.54-.43,2.06-.43,1.76,0,2.65,1.64,2.65,4.93,0,2.22-.54,4.39-1.63,6.53-2.39,4.68-6.3,7.02-11.75,7.02-6.28,0-10.53-3.77-12.76-11.33-.67-2.3-1.38-3.45-2.1-3.45-.47,0-1.3.66-2.49,1.97-3.94,4.68-7.86,8.09-11.75,10.22-3.89,2.13-8.3,3.2-13.23,3.2-8.25,0-14.64-2.98-19.18-8.93-4.54-5.95-6.81-14.14-6.81-24.57ZM284.12,221.18c1.61,3.74,3.53,6.18,5.76,7.33,1.25.49,2,.29,2.26-.62.21-1.07-.26-2.05-1.4-2.96-1.66-1.48-3.09-3.71-4.28-6.71-1.19-2.99-1.84-6.63-1.95-10.9-.1-2.96.08-5.68.54-8.19.47-2.5,1.11-4.66,1.95-6.47.57-1.48.61-2.48.12-3.02-.49-.53-1.21-.27-2.14.8-.83,1.15-1.66,3.16-2.49,6.03-.83,2.87-1.17,6.61-1.01,11.21.16,5.25,1.04,9.75,2.65,13.48ZM293.31,132.08c-.26-.9-.96-1.15-2.1-.74-1.87.66-3.14,2.34-3.81,5.05-.57,1.81-.57,3,0,3.57.36.58.91.33,1.63-.74.57-.9,1.14-1.74,1.71-2.52.57-.78,1.14-1.5,1.71-2.16.73-.74,1.01-1.56.86-2.46ZM288.09,205.72c0,5.5,1.14,9.87,3.42,13.11,2.28,3.24,5.55,4.86,9.81,4.86,3.89,0,7.59-.92,11.09-2.77,3.5-1.85,6.34-4.41,8.52-7.7.73-.99,1.18-1.91,1.36-2.77.18-.86.27-2.16.27-3.88v-19.95c0-3.86-1.22-5.66-3.66-5.42-11.36,1.48-19.34,3.94-23.93,7.39s-6.89,9.16-6.89,17.12ZM331.75,133.93c-.57-1.4-1.14-1.85-1.71-1.36-.78.33-.93,1.31-.47,2.95.99,3.53,1.7,7.27,2.14,11.21.44,3.94.66,8.91.66,14.9v49.63c0,8.46,1.3,13.79,3.89,16.01.88.91,1.56.99,2.02.25.36-.82.21-1.85-.47-3.08-1.56-3.2-2.33-7.59-2.33-13.18v-49.63c0-12.97-1.25-22.21-3.74-27.71Z"/>
    <path d="M426.92,231.7c0-1.64.39-3,1.17-4.06.78-1.06,2.15-2.22,4.12-3.45,1.66-.98,2.79-2.28,3.39-3.88.6-1.6.89-4.25.89-7.94v-65.14c0-3.61-.34-6.22-1.01-7.82-.67-1.6-1.95-2.69-3.81-3.26-3.27-1.23-4.9-3.49-4.9-6.77,0-2.38.8-4.33,2.41-5.85,1.61-1.52,4.64-3.22,9.11-5.11,2.75-1.15,4.9-1.95,6.46-2.4,1.56-.45,2.85-.68,3.89-.68,3.42,0,5.14,3.2,5.14,9.61v87.43c0,3.53.31,6.18.93,7.94.62,1.77,1.74,3.1,3.35,4,1.87,1.07,3.16,2.15,3.89,3.26.73,1.11,1.09,2.48,1.09,4.12,0,3.04-1.21,5.15-3.62,6.34-2.41,1.19-6.68,1.79-12.8,1.79h-2.65c-6.33,0-10.75-.6-13.27-1.79-2.52-1.19-3.77-3.3-3.77-6.34ZM432.29,81.35c0-4.68,1.1-8.44,3.31-11.27,2.2-2.83,5.1-4.25,8.68-4.25s6.58,1.31,8.68,3.94c2.1,2.63,3.15,6.2,3.15,10.71s-1.1,8.44-3.31,11.27c-2.21,2.83-5.1,4.25-8.68,4.25s-6.58-1.31-8.68-3.94c-2.1-2.63-3.15-6.2-3.15-10.71ZM446.69,153.88v57.63c0,3.69.18,6.61.54,8.74.36,2.14.93,3.86,1.71,5.17.47.9.99,1.36,1.56,1.36.67,0,1.01-.45,1.01-1.36,0-.33-.21-1.07-.62-2.22-.47-1.4-.77-2.93-.89-4.62-.13-1.68-.19-4.04-.19-7.08v-57.63c0-5.83-.03-10.06-.08-12.68-.05-2.63-.13-4.51-.23-5.67-.16-1.72-.57-2.59-1.25-2.59s-1.06.86-1.17,2.59c-.1,1.15-.2,3.04-.27,5.67-.08,2.63-.12,6.86-.12,12.68ZM449.95,72.97c-.47-.49-.91-.74-1.32-.74-.52,0-.82.39-.89,1.17-.08.78.08,1.58.47,2.4.39.82.66,1.77.82,2.83.16,1.07.23,1.97.23,2.71s-.03,1.38-.08,1.91c-.05.53-.1,1.09-.16,1.66-.26,1.97,0,2.95.78,2.95.57,0,1.06-.53,1.48-1.6.62-1.8.93-3.78.93-5.91,0-3.04-.75-5.5-2.26-7.39Z"/>
  </g>
  <path d="M269.96,106.54c28.93-8.37,63.79-7.72,88.08,12.17,21.45,17.56,24.95,48.14,27.05,74.06,1.27,15.66,1.47,31.37,1.66,47.07l.05-12.8c-.17-2-.26-3.99-.36-5.99-.32-6.34-.26,10.12.03,1.28.13-4.01.36-8.03.63-12.03.59-8.55,1.44-17.07,2.35-25.59,1.48-13.94,3.35-27.88,4.12-41.88,1.56-28.54-.98-60.68,20.08-83.13,10.66-11.37,25.56-17.53,39.74-23.24.49-.2.07-6.79.08-7.5s-.5-7.33-.08-7.5c-14.18,5.7-29.08,11.87-39.74,23.24-10.76,11.47-15.69,25.93-17.66,41.28-2.14,16.75-1.58,33.69-3.04,50.49s-3.86,34.7-5.32,52.1c-1.48,17.66-2.3,35.78-.82,53.47-.35-4.19.11-8.59.05-12.8-.35-28.2-.25-56.96-6.5-84.61-2.78-12.29-6.9-25.1-15.58-34.56-10.59-11.55-25.12-18.64-40.37-21.68-18.05-3.59-36.86-1.94-54.46,3.15-1.44.42,1.23,14.64,0,15h0Z"/>
  <path d="M281.46,28.86c12.84-.99,25.41,6.63,30.61,18.44.65,1.48,1.18,3,1.56,4.56s-.06,3.84.75,1.25c1.08-3.44,1.79-6.63,3.89-9.65,4.13-5.93,11.12-8.96,18.18-7.06-1.16-.31,1.37-14.63,0-15-7.06-1.91-14.05,1.13-18.18,7.06-2.14,3.07-2.55,6.29-3.89,9.65l-.24,1.48c-.12-.92-.29-1.83-.51-2.73-.38-1.57-.91-3.09-1.56-4.56-5.19-11.81-17.77-19.43-30.61-18.44-.49.04.27,14.98,0,15h0Z"/>
  <path d="M393.4,24.39c8.92-2.34,18,.14,24.49,6.69-.7-.7.07-6.39.08-7.5,0-2.47.21-5.04-.08-7.5l-.16-1.37.05,2.2v-1.37c-.03,4.27-.05,8.54-.07,12.8.58-6.22,4.25-11.24,10.16-13.35,1.68-.6-1.48-14.47,0-15-5.9,2.11-9.74,7.22-10.17,13.49-.4,5.73-.48,11.89.18,17.6v-15c-6.49-6.55-15.57-9.03-24.49-6.69-1.33.35,1.12,14.71,0,15h0Z"/>
</svg>