<?xml version="1.0" encoding="UTF-8"?>
<svg id="Layer_1" data-name="Layer 1" xmlns="http://www.w3.org/2000/svg" viewBox="0 0 500.28 202.28">
  <defs>
    <style>
      .cls-1 {
        fill: #fff;
      }

      .cls-2 {
        fill: #005499;
      }
    </style>
  </defs>
  <g>
    <path class="cls-2" d="M0,195.5c0-1.09.36-1.98,1.09-2.68.73-.7,2.01-1.45,3.85-2.26,1.84-.8,3.4-2.09,4.67-3.85,1.27-1.76,2.94-5.08,5.02-9.96l32.53-76.19c1.35-3.06,2.84-5.3,4.47-6.73,1.63-1.43,3.67-2.14,6.11-2.14,4.62,0,8.25,2.96,10.9,8.87l32.45,76.19c2.13,4.88,3.83,8.2,5.1,9.96,1.27,1.76,2.81,3.05,4.63,3.85,1.82.8,3.09,1.56,3.81,2.26.73.7,1.09,1.59,1.09,2.68,0,2.02-1.18,3.46-3.54,4.32-2.36.86-6.63,1.28-12.8,1.28h-4.59c-8.56,0-14.29-.4-17.2-1.21-2.91-.8-4.36-2.24-4.36-4.32,0-1.14.41-2.08,1.25-2.8.83-.73,2.33-1.45,4.51-2.18,3.32-1.14,4.98-2.78,4.98-4.9,0-.57-.13-1.37-.39-2.41-.26-1.04-.83-2.59-1.71-4.67l-4.28-9.96c-.67-1.76-2.08-2.65-4.2-2.65h-37.74c-2.08,0-3.45.88-4.12,2.65l-3.81,9.18c-1.45,3.53-2.18,6.1-2.18,7.7,0,2.33,1.66,4.02,4.98,5.06,2.28.73,3.88,1.44,4.79,2.14.91.7,1.36,1.65,1.36,2.84,0,2.08-1.25,3.51-3.74,4.32s-6.93,1.21-13.31,1.21h-4.12c-5.81,0-9.84-.43-12.1-1.28-2.26-.86-3.39-2.3-3.39-4.32ZM21.71,186.48c0-2.13.67-4.69,2.02-7.7.42-.99.28-1.63-.39-1.95-.62-.16-1.25.16-1.87.93-.67,1.04-1.31,2.44-1.91,4.2-.6,1.76-.9,3.27-.9,4.51,0,2.13.7,3.76,2.1,4.9.73.67,1.37.86,1.95.54.47-.31.47-.98,0-2.02-.67-1.14-1.01-2.28-1.01-3.42ZM37.67,153.56c0,1.19.88,1.79,2.65,1.79h28.56c1.76,0,2.65-.6,2.65-1.79,0-.57-.29-1.56-.86-2.96l-13.62-33.46c-.83-1.87-1.66-2.8-2.49-2.8-.73,0-1.51.93-2.33,2.8l-13.7,33.46c-.36.78-.6,1.39-.7,1.83-.1.44-.16.82-.16,1.13ZM60.39,100.41c.57,1.14,1.28,2.67,2.14,4.59.86,1.92,2.04,4.62,3.54,8.09l30.12,70.66c1.92,4.31,3.89,6.93,5.91,7.86,1.04.47,1.72.44,2.06-.08.34-.52.14-1.14-.58-1.87-1.4-1.19-2.88-3.58-4.44-7.16l-30.19-70.66c-1.61-3.89-2.92-6.82-3.93-8.79-1.01-1.97-1.88-3.29-2.61-3.97-.78-.78-1.43-.98-1.95-.62-.52.36-.54,1.01-.08,1.95Z"/>
    <path class="cls-2" d="M126.69,175.89v-36.65c0-1.66-.29-2.81-.86-3.46-.57-.65-1.76-1.1-3.58-1.36-2.85-.31-4.9-.82-6.15-1.52-1.25-.7-1.87-1.88-1.87-3.54,0-2.59,1.95-4.33,5.84-5.21,2.54-.52,4.53-1.21,5.95-2.06,1.43-.86,2.58-2.28,3.46-4.28.88-2,1.71-4.91,2.49-8.75.62-2.59,1.45-4.37,2.49-5.33,1.04-.96,2.44-1.44,4.2-1.44,3.53,0,5.29,2.15,5.29,6.46v11.83c0,2.18,1.06,3.27,3.19,3.27h17.74c4.36,0,6.54,1.76,6.54,5.29s-2.18,5.45-6.54,5.45h-17.74c-2.13,0-3.19,1.06-3.19,3.19v36.19c0,10.74,3.37,16.11,10.12,16.11,2.33,0,4.33-.32,5.99-.97,1.66-.65,3.24-1.54,4.75-2.69.83-.62,1.63-1.14,2.41-1.56.78-.42,1.56-.62,2.33-.62.98,0,1.79.35,2.41,1.05s.93,1.57.93,2.61c0,2.39-.96,4.7-2.88,6.93-1.82,2.23-4.42,4.03-7.82,5.41-3.4,1.37-7.35,2.06-11.87,2.06-15.77,0-23.66-8.79-23.66-26.38ZM137.39,124.18c.28.7.61,1.28.97,1.75.62.83,1.22,1.12,1.79.86.57-.26.65-.91.23-1.95-.1-.41-.19-.89-.27-1.44-.08-.54-.12-1.33-.12-2.37v-5.99c0-1.25-.34-1.87-1.01-1.87s-1.14.49-1.4,1.48c-.21.62-.36,1.54-.47,2.76-.1,1.22-.16,2.43-.16,3.62,0,1.4.14,2.45.43,3.15ZM137.01,140.06c-.03,1.63-.04,3.36-.04,5.17v30.51c0,4.2.44,7.51,1.32,9.92.88,2.41,1.91,4.18,3.07,5.29,1.17,1.12,2.19,1.83,3.07,2.14.88.42,1.52.32,1.91-.27.39-.6.14-1.18-.74-1.75-.62-.52-1.38-1.28-2.26-2.3-.88-1.01-1.66-2.53-2.33-4.55-.67-2.02-1.01-4.85-1.01-8.48v-30.51c0-1.82-.01-3.54-.04-5.17-.03-1.63-.12-2.87-.27-3.7-.21-1.09-.64-1.63-1.28-1.63s-1.02.54-1.13,1.63c-.16.83-.25,2.06-.27,3.7ZM164.83,193.87c.88-.16,1.67-.56,2.37-1.21.7-.65,1.23-1.31,1.6-1.98.62-1.09.65-1.84.08-2.26-.47-.41-1.04-.28-1.71.39-.99,1.04-2.15,2-3.5,2.88-.78.52-1.06,1.01-.86,1.48.21.57.88.81,2.02.7ZM164.36,130.37c0,.67.44,1.01,1.32,1.01,1.25,0,1.87-.8,1.87-2.41,0-1.19-.38-1.79-1.13-1.79s-1.28.49-1.6,1.48c-.31.73-.47,1.3-.47,1.71Z"/>
    <path class="cls-2" d="M181.24,181.11c0-5.55,1.62-10.06,4.86-13.54,3.24-3.48,8.44-6.21,15.6-8.21,7.16-2,16.65-3.49,28.48-4.47,2.44-.21,3.66-1.35,3.66-3.42v-2.49c0-5.86-1.18-10.16-3.54-12.88-2.36-2.72-5.93-4.09-10.7-4.09-2.96,0-6.02.87-9.18,2.61-3.17,1.74-5.94,3.9-8.33,6.5-2.91,3.06-5.45,4.59-7.63,4.59-2.49,0-3.74-1.56-3.74-4.67,0-.67.09-1.61.27-2.8.18-1.19.53-2.8,1.05-4.82.83-3.06,1.8-5.5,2.92-7.32,1.12-1.82,2.45-2.72,4.01-2.72,1.25,0,2.41.67,3.5,2.02.98,1.19,2,1.79,3.04,1.79.93,0,2.19-.45,3.77-1.36,1.58-.91,3.6-1.8,6.07-2.68,2.46-.88,5.46-1.32,8.99-1.32,8.51,0,15.06,2.22,19.65,6.65,4.59,4.44,6.89,10.86,6.89,19.26v34.47c0,3.11.43,5.32,1.28,6.62.86,1.3,2.04,1.95,3.54,1.95.83,0,1.67-.09,2.53-.27.86-.18,1.54-.27,2.06-.27,1.76,0,2.65,1.04,2.65,3.11,0,1.4-.54,2.78-1.63,4.12-2.39,2.96-6.3,4.44-11.75,4.44-6.28,0-10.53-2.38-12.76-7.16-.67-1.45-1.38-2.18-2.1-2.18-.47,0-1.3.42-2.49,1.25-3.94,2.96-7.86,5.11-11.75,6.46s-8.3,2.02-13.23,2.02c-8.25,0-14.64-1.88-19.18-5.64-4.54-3.76-6.81-8.94-6.81-15.52ZM195.41,189.32c1.61,2.36,3.53,3.9,5.76,4.63,1.25.31,2,.18,2.26-.39.21-.67-.26-1.3-1.4-1.87-1.66-.93-3.09-2.35-4.28-4.24-1.19-1.89-1.84-4.19-1.95-6.89-.1-1.87.08-3.59.54-5.17.47-1.58,1.12-2.94,1.95-4.09.57-.93.61-1.57.12-1.91-.49-.34-1.21-.17-2.14.51-.83.73-1.66,2-2.49,3.81-.83,1.82-1.17,4.18-1.01,7.08.16,3.32,1.04,6.16,2.65,8.52ZM204.59,133.01c-.26-.57-.96-.73-2.1-.47-1.87.42-3.14,1.48-3.81,3.19-.57,1.14-.57,1.89,0,2.26.36.36.91.21,1.63-.47.57-.57,1.14-1.1,1.71-1.59.57-.49,1.14-.95,1.71-1.36.73-.47,1.01-.99.86-1.56ZM199.38,179.55c0,3.48,1.14,6.24,3.42,8.29,2.28,2.05,5.55,3.07,9.81,3.07,3.89,0,7.59-.58,11.09-1.75,3.5-1.17,6.34-2.79,8.52-4.86.73-.62,1.18-1.21,1.36-1.75.18-.54.27-1.36.27-2.45v-12.61c0-2.44-1.22-3.58-3.66-3.42-11.36.93-19.34,2.49-23.93,4.67s-6.89,5.79-6.89,10.82ZM243.03,134.18c-.57-.88-1.14-1.17-1.71-.86-.78.21-.93.83-.47,1.87.98,2.23,1.7,4.59,2.14,7.08.44,2.49.66,5.63.66,9.42v31.36c0,5.34,1.3,8.72,3.89,10.12.88.57,1.55.62,2.02.16.36-.52.21-1.17-.47-1.95-1.55-2.02-2.33-4.8-2.33-8.33v-31.36c0-8.2-1.24-14.03-3.73-17.51Z"/>
    <path class="cls-2" d="M269.96,181.11c0-5.55,1.62-10.06,4.86-13.54,3.24-3.48,8.44-6.21,15.6-8.21,7.16-2,16.65-3.49,28.48-4.47,2.44-.21,3.66-1.35,3.66-3.42v-2.49c0-5.86-1.18-10.16-3.54-12.88-2.36-2.72-5.93-4.09-10.7-4.09-2.96,0-6.02.87-9.18,2.61-3.17,1.74-5.94,3.9-8.33,6.5-2.91,3.06-5.45,4.59-7.63,4.59-2.49,0-3.74-1.56-3.74-4.67,0-.67.09-1.61.27-2.8.18-1.19.53-2.8,1.05-4.82.83-3.06,1.8-5.5,2.92-7.32,1.12-1.82,2.45-2.72,4.01-2.72,1.25,0,2.41.67,3.5,2.02.99,1.19,2,1.79,3.04,1.79.93,0,2.19-.45,3.77-1.36,1.58-.91,3.61-1.8,6.07-2.68,2.46-.88,5.46-1.32,8.99-1.32,8.51,0,15.06,2.22,19.65,6.65,4.59,4.44,6.89,10.86,6.89,19.26v34.47c0,3.11.43,5.32,1.28,6.62.86,1.3,2.04,1.95,3.54,1.95.83,0,1.67-.09,2.53-.27.86-.18,1.54-.27,2.06-.27,1.76,0,2.65,1.04,2.65,3.11,0,1.4-.54,2.78-1.63,4.12-2.39,2.96-6.3,4.44-11.75,4.44-6.28,0-10.53-2.38-12.76-7.16-.67-1.45-1.38-2.18-2.1-2.18-.47,0-1.3.42-2.49,1.25-3.94,2.96-7.86,5.11-11.75,6.46-3.89,1.35-8.3,2.02-13.23,2.02-8.25,0-14.64-1.88-19.18-5.64-4.54-3.76-6.81-8.94-6.81-15.52ZM284.12,189.32c1.61,2.36,3.53,3.9,5.76,4.63,1.25.31,2,.18,2.26-.39.21-.67-.26-1.3-1.4-1.87-1.66-.93-3.09-2.35-4.28-4.24-1.19-1.89-1.84-4.19-1.95-6.89-.1-1.87.08-3.59.54-5.17.47-1.58,1.11-2.94,1.95-4.09.57-.93.61-1.57.12-1.91-.49-.34-1.21-.17-2.14.51-.83.73-1.66,2-2.49,3.81-.83,1.82-1.17,4.18-1.01,7.08.16,3.32,1.04,6.16,2.65,8.52ZM293.31,133.01c-.26-.57-.96-.73-2.1-.47-1.87.42-3.14,1.48-3.81,3.19-.57,1.14-.57,1.89,0,2.26.36.36.91.21,1.63-.47.57-.57,1.14-1.1,1.71-1.59.57-.49,1.14-.95,1.71-1.36.73-.47,1.01-.99.86-1.56ZM288.09,179.55c0,3.48,1.14,6.24,3.42,8.29,2.28,2.05,5.55,3.07,9.81,3.07,3.89,0,7.59-.58,11.09-1.75,3.5-1.17,6.34-2.79,8.52-4.86.73-.62,1.18-1.21,1.36-1.75.18-.54.27-1.36.27-2.45v-12.61c0-2.44-1.22-3.58-3.66-3.42-11.36.93-19.34,2.49-23.93,4.67s-6.89,5.79-6.89,10.82ZM331.75,134.18c-.57-.88-1.14-1.17-1.71-.86-.78.21-.93.83-.47,1.87.99,2.23,1.7,4.59,2.14,7.08.44,2.49.66,5.63.66,9.42v31.36c0,5.34,1.3,8.72,3.89,10.12.88.57,1.56.62,2.02.16.36-.52.21-1.17-.47-1.95-1.56-2.02-2.33-4.8-2.33-8.33v-31.36c0-8.2-1.25-14.03-3.74-17.51Z"/>
    <path class="cls-2" d="M426.92,195.97c0-1.04.39-1.89,1.17-2.57.78-.67,2.15-1.4,4.12-2.18,1.66-.62,2.79-1.44,3.39-2.45.6-1.01.89-2.68.89-5.02v-41.17c0-2.28-.34-3.93-1.01-4.94-.67-1.01-1.95-1.7-3.81-2.06-3.27-.78-4.9-2.21-4.9-4.28,0-1.5.8-2.74,2.41-3.7,1.61-.96,4.64-2.04,9.11-3.23,2.75-.73,4.9-1.23,6.46-1.52,1.56-.28,2.85-.43,3.89-.43,3.42,0,5.14,2.02,5.14,6.07v55.25c0,2.23.31,3.9.93,5.02.62,1.12,1.74,1.96,3.35,2.53,1.87.67,3.16,1.36,3.89,2.06.73.7,1.09,1.57,1.09,2.61,0,1.92-1.21,3.26-3.62,4.01-2.41.75-6.68,1.13-12.8,1.13h-2.65c-6.33,0-10.75-.38-13.27-1.13-2.52-.75-3.77-2.09-3.77-4.01ZM432.29,100.95c0-2.96,1.1-5.33,3.31-7.12,2.2-1.79,5.1-2.68,8.68-2.68s6.58.83,8.68,2.49c2.1,1.66,3.15,3.92,3.15,6.77s-1.1,5.33-3.31,7.12c-2.21,1.79-5.1,2.69-8.68,2.69s-6.58-.83-8.68-2.49c-2.1-1.66-3.15-3.92-3.15-6.77ZM446.69,146.79v36.42c0,2.33.18,4.18.54,5.53.36,1.35.93,2.44,1.71,3.27.47.57.99.86,1.56.86.67,0,1.01-.29,1.01-.86,0-.21-.21-.67-.62-1.4-.47-.88-.77-1.85-.89-2.92-.13-1.06-.19-2.55-.19-4.47v-36.42c0-3.68-.03-6.35-.08-8.02-.05-1.66-.13-2.85-.23-3.58-.16-1.09-.57-1.63-1.25-1.63s-1.06.54-1.17,1.63c-.1.73-.2,1.92-.27,3.58-.08,1.66-.12,4.33-.12,8.02ZM449.95,95.66c-.47-.31-.91-.47-1.32-.47-.52,0-.82.25-.89.74-.08.49.08,1,.47,1.52.39.52.66,1.12.82,1.79.16.67.23,1.25.23,1.71s-.03.87-.08,1.21c-.05.34-.1.69-.16,1.05-.26,1.25,0,1.87.78,1.87.57,0,1.06-.34,1.48-1.01.62-1.14.93-2.39.93-3.74,0-1.92-.75-3.47-2.26-4.67Z"/>
  </g>
  <path class="cls-2" d="M325.41,42.25s-59-24-79,0,79,18,79,18c0,0-49,17-36,30s36-6,36-6c0,0-14,29,0,25s59.55,18.77,59.01,89.94c0,.09.12.11.14.02,1.5-10.42,14.51-95.76,39.85-107.96,20.91-10.07,35.82-8.74,41.49-7.63,1.29.25,2.47-.84,2.31-2.15-1.03-8.65-7.34-33.45-45.8-14.23,0,0,17.37-34.75,62.56-27.43,1.05.17,1.83-.95,1.31-1.87-4.37-7.76-22.26-30.59-68.86,3.31,0,0,8.73-21.42,21.23-25.4,1.32-.42,1.42-2.26.16-2.84-14.21-6.54-55.59-22.93-42.22,15.17,1.95,5.56,2.71,11.47,2.36,17.35-.92,15.26-3.51,45.06-10.52,72.7,0,0-37.91-68.38-63-76Z"/>
  <polygon class="cls-1" points="352.83 71.4 384.98 119.11 382.43 120.38 351.72 71.9 352.83 71.4"/>
  <path class="cls-2" d="M317.37,14.49c6.59-1.31,12.15,3.69,16.64,7.77.91.83,2.63.3,2.56-1.06-.2-4.03-.3-8.37,1.41-12.13,1.37-2.99,4.07-5.74,7.49-6.06,1.91-.18,1.92-3.18,0-3-4.25.4-7.77,3.17-9.75,6.88-2.33,4.37-2.39,9.48-2.15,14.3l2.56-1.06c-5.4-4.92-11.73-10.09-19.56-8.54-1.89.37-1.09,3.27.8,2.89h0Z"/>
  <path class="cls-2" d="M471.29,52.32c5.19,4.57,4.6,12.03,4.06,18.27-.12,1.42,1.67,1.82,2.56,1.06,3.06-2.58,6.4-5.18,10.39-6.11,3.33-.78,7.07-.15,9.45,2.43,1.31,1.42,3.43-.7,2.12-2.12-2.95-3.2-7.49-4.09-11.65-3.35-4.78.85-8.81,3.97-12.43,7.03l2.56,1.06c.61-7.06.89-15.27-4.94-20.39-1.44-1.27-3.57.84-2.12,2.12h0Z"/>
  <path class="cls-2" d="M264.25,114.69c3.43-5.8,10.79-6.67,16.86-7.28,1.14-.11,2.18-1.65,1.06-2.56-3.08-2.5-6.21-5.21-7.97-8.84-1.58-3.25-1.71-7.24.5-10.23,1.15-1.55-1.45-3.05-2.59-1.51-2.59,3.5-2.58,8.3-.96,12.21,1.79,4.34,5.34,7.59,8.91,10.49l1.06-2.56c-7.21.73-15.41,1.93-19.45,8.77-.98,1.67,1.61,3.18,2.59,1.51h0Z"/>
</svg>