<?xml version="1.0" encoding="UTF-8"?>
<svg id="Layer_1" data-name="Layer 1" xmlns="http://www.w3.org/2000/svg" viewBox="0 0 56.51 24.36">
  <path d="M1.02,24.33c-.25,0-.45-.05-.6-.16s-.26-.24-.32-.42-.1-.39-.1-.64c0-.4.06-.95.18-1.64.12-.7.29-1.51.51-2.44s.49-1.95.8-3.04c.37-1.29.7-2.34,1-3.15.3-.81.58-1.45.87-1.91s.57-.78.87-.96c.3-.18.62-.27.98-.27.4,0,.75.1,1.05.3.3.2.59.53.87,1s.55,1.1.82,1.91c.27.81.58,1.82.92,3.05.33,1.11.6,2.14.83,3.08s.41,1.76.53,2.45c.13.7.19,1.24.19,1.62,0,.24-.03.45-.1.64-.07.19-.17.34-.32.43s-.35.14-.6.14c-.22,0-.41-.06-.57-.17-.16-.11-.28-.28-.38-.5s-.17-.48-.23-.78c-.13-.75-.24-1.35-.33-1.8-.09-.44-.17-.78-.23-1.02-.07-.24-.14-.42-.21-.56-.06-.12-.14-.21-.24-.27s-.3-.1-.6-.11c-.3-.01-.76-.02-1.4-.02s-1.06,0-1.35.02c-.3.02-.5.05-.61.11s-.2.14-.26.24c-.09.18-.17.38-.23.62-.07.24-.14.57-.21.99s-.19,1.02-.35,1.81c-.06.3-.14.55-.23.77-.1.21-.21.38-.35.49-.14.11-.33.17-.57.17ZM5.26,17.32h.67c.21,0,.39,0,.56-.02.18-.01.3-.06.36-.12.06-.07.09-.17.09-.32,0-.27-.06-.6-.18-1.01-.12-.41-.25-.85-.4-1.34-.22-.8-.4-1.39-.53-1.77s-.25-.62-.34-.73c-.1-.11-.2-.17-.32-.17-.09,0-.18.06-.27.18s-.19.36-.31.72c-.12.36-.29.93-.51,1.7-.13.46-.26.91-.39,1.35-.13.44-.19.8-.19,1.07,0,.15.03.26.08.32.05.07.17.11.34.12.25.01.48.02.69.02h.67Z"/>
  <path d="M16.21,24.36c-.98,0-1.73-.37-2.25-1.12-.53-.75-.89-1.76-1.09-3.05-.2-1.28-.3-2.72-.3-4.32s0-2.93.01-4.14c0-1.22.01-2.32.01-3.32,0-.29-.03-.48-.08-.59-.05-.1-.14-.17-.26-.2-.24-.03-.45-.08-.63-.16-.19-.08-.33-.24-.42-.47-.1-.24-.14-.59-.14-1.06,0-.6.1-1.02.31-1.26.21-.24.48-.35.82-.35.16,0,.29-.03.37-.1.08-.06.13-.26.14-.57.01-.31.03-.63.03-.94,0-.31.02-.6.03-.86.03-.63.13-1.09.31-1.4.18-.3.41-.45.69-.45.38,0,.64.26.75.79.12.52.2,1.53.24,3.02.01.21.04.35.09.41.04.07.13.1.24.1h2.11c.4,0,.72.11.97.33.24.22.37.65.37,1.28s-.13,1.11-.4,1.36c-.27.25-.58.37-.93.37h-2.2c-.09,0-.16.03-.21.1-.05.07-.08.2-.08.41-.02,1.68-.02,3.22-.01,4.64,0,1.41.01,2.47.01,3.18,0,1.83.17,3.09.51,3.77.34.68.78,1.02,1.31,1.02.33,0,.57-.05.74-.16.17-.1.36-.16.57-.16.25,0,.44.12.58.37s.2.63.2,1.16c0,.45-.08.85-.24,1.22-.16.37-.42.65-.78.84-.35.2-.82.29-1.4.29Z"/>
  <path d="M23.69,24.36c-.87-.02-1.66-.25-2.35-.71-.7-.46-1.24-1.12-1.63-2s-.59-1.92-.59-3.15.2-2.22.59-3.08c.39-.85.94-1.5,1.63-1.94.7-.44,1.49-.67,2.38-.67.65,0,1.23.11,1.73.32.5.21.93.56,1.29,1.03.04.06.09.11.14.14.05.04.11.06.17.06.15,0,.25-.19.31-.56.04-.34.15-.58.31-.71.16-.13.37-.2.62-.2.3,0,.52.08.67.24.15.16.24.39.29.69.09.62.14,1.35.17,2.19.02.84.03,1.66.03,2.48s0,1.63-.02,2.49c-.02.86-.06,1.61-.13,2.24-.04.34-.16.6-.33.78-.18.18-.41.27-.69.27-.25,0-.46-.1-.62-.31-.16-.21-.27-.47-.31-.78-.04-.38-.14-.58-.29-.58-.1,0-.21.07-.31.2-.39.5-.82.89-1.31,1.15-.49.27-1.07.4-1.73.4ZM24.27,22.34c.3,0,.62-.07.98-.2.36-.13.7-.35,1.02-.65s.6-.7.81-1.18c.21-.48.32-1.08.32-1.79,0-.67-.11-1.24-.32-1.71-.21-.47-.48-.85-.81-1.14-.33-.29-.67-.5-1.02-.63-.35-.13-.68-.2-.98-.2-.95,0-1.68.33-2.2.99s-.78,1.56-.78,2.7.26,2.1.78,2.79,1.25,1.03,2.2,1.03Z"/>
  <path d="M35.82,24.36c-.87-.02-1.66-.25-2.35-.71-.7-.46-1.24-1.12-1.63-2s-.59-1.92-.59-3.15.2-2.22.59-3.08c.39-.85.94-1.5,1.63-1.94.7-.44,1.49-.67,2.38-.67.65,0,1.23.11,1.73.32.5.21.93.56,1.29,1.03.04.06.09.11.14.14.05.04.11.06.17.06.15,0,.25-.19.31-.56.04-.34.15-.58.31-.71.16-.13.37-.2.62-.2.3,0,.52.08.67.24.15.16.24.39.29.69.09.62.14,1.35.17,2.19.02.84.03,1.66.03,2.48s0,1.63-.02,2.49c-.02.86-.06,1.61-.13,2.24-.04.34-.16.6-.33.78-.18.18-.41.27-.69.27-.25,0-.46-.1-.62-.31-.16-.21-.27-.47-.31-.78-.04-.38-.14-.58-.29-.58-.1,0-.21.07-.31.2-.39.5-.82.89-1.31,1.15-.49.27-1.07.4-1.73.4ZM36.39,22.34c.3,0,.62-.07.98-.2.36-.13.7-.35,1.02-.65s.6-.7.81-1.18c.21-.48.32-1.08.32-1.79,0-.67-.11-1.24-.32-1.71-.21-.47-.48-.85-.81-1.14-.33-.29-.67-.5-1.02-.63-.35-.13-.68-.2-.98-.2-.95,0-1.68.33-2.2.99s-.78,1.56-.78,2.7.26,2.1.78,2.79,1.25,1.03,2.2,1.03Z"/>
  <path d="M47.72,24.36c-.46,0-.86-.19-1.2-.56-.34-.37-.66-.91-.97-1.63-.3-.72-.65-1.6-1.03-2.65-.21-.61-.41-1.27-.61-1.98-.2-.71-.36-1.38-.49-2.01-.13-.63-.19-1.11-.19-1.43,0-.25.02-.47.07-.64.04-.18.13-.31.27-.41.13-.1.33-.14.58-.14.31,0,.56.13.74.4.19.27.34.67.48,1.22.21.9.41,1.73.6,2.49.19.75.38,1.45.56,2.09.27.95.5,1.65.69,2.11.19.46.36.69.51.69s.32-.23.52-.69c.2-.46.43-1.16.7-2.11.18-.65.36-1.35.55-2.1s.4-1.57.62-2.48c.12-.55.27-.95.47-1.22.19-.27.44-.4.73-.4.27,0,.46.05.59.14.13.1.21.23.27.41.05.18.08.39.08.64,0,.33-.06.8-.19,1.43-.13.63-.29,1.3-.49,2.01-.2.71-.41,1.37-.63,1.98-.37,1.05-.71,1.94-1.03,2.65-.32.72-.64,1.26-.98,1.63-.33.37-.74.56-1.21.56Z"/>
  <path d="M55.09,11.46c-.44,0-.79-.13-1.02-.39-.24-.26-.36-.58-.36-.97s.12-.73.36-.98c.24-.25.58-.38,1.02-.38s.81.13,1.05.38c.24.25.37.58.37.98s-.12.71-.37.97c-.24.26-.6.39-1.05.39ZM55.11,24.27c-.21,0-.38-.04-.52-.12-.14-.08-.26-.2-.34-.37-.09-.18-.16-.52-.2-1.02s-.07-1.11-.08-1.81c0-.7-.01-1.45-.01-2.25s0-1.55.01-2.31.03-1.41.08-1.96.1-.91.18-1.08c.09-.18.21-.31.36-.39.15-.08.33-.12.53-.12.43,0,.73.17.89.51.09.16.15.52.19,1.08.04.56.06,1.21.06,1.96v2.31c0,.8,0,1.55-.01,2.25,0,.7-.03,1.31-.07,1.81s-.1.84-.19,1.02c-.16.33-.45.49-.87.49Z"/>
</svg>